# xmcd
#
# Track frame offsets: 
#        300
#        13705
#        33540
#        52118
#        79479
#        91485
#        109171
#        121481
#        134046
#        153643
#        175701
#        191790
#        208062
#        221129
#        238570
#        267374
#        287131
#        300643
#
# Disc length: 4300 seconds
#
# Revision: 3
# Processed by: cddbd v1.5.2PL0 Copyright (c) Steve Scherf et al.
# Submitted via: ExactAudioCopy v1.0b1
#
DISCID=1b10c812
DTITLE=Ronnie Earl and The Broadcasters - Test Of Time
DYEAR=1992
DGENRE=Blues
TTITLE0=Ronnie Johnnie
TTITLE1=I Smell Trouble
TTITLE2=Ridin' In The Moonlight
TTITLE3=Baby Doll Blues
TTITLE4=You Give Me Nothing But THe Blues
TTITLE5=Narcolepsy
TTITLE6=Waitin' For My Chance
TTITLE7=Soul Searchin'
TTITLE8=Backstroke
TTITLE9=Ships Passing In The Night
TTITLE10=I Want To Shout About It
TTITLE11=I Wish You Could See Me Know
TTITLE12=I Cried My Eyes Out
TTITLE13=T-Bone Boogie
TTITLE14=A Soul That's Been Abused
TTITLE15=One Of These Mornings
TTITLE16=Off THe Hook
TTITLE17=Akos
EXTD=
EXTT0=
EXTT1=
EXTT2=
EXTT3=
EXTT4=
EXTT5=
EXTT6=
EXTT7=
EXTT8=
EXTT9=
EXTT10=
EXTT11=
EXTT12=
EXTT13=
EXTT14=
EXTT15=
EXTT16=
EXTT17=
PLAYORDER=
